<svg width="262" height="262" xmlns="http://www.w3.org/2000/svg" xmlns:xlink="http://www.w3.org/1999/xlink" xml:space="preserve" overflow="hidden"><defs><clipPath id="clip0"><rect x="472" y="148" width="262" height="262"/></clipPath></defs><g clip-path="url(#clip0)" transform="translate(-472 -148)"><path d="M627.478 214.136C626.31 212.279 624.358 211.056 622.178 210.814 620.098 210.572 618.021 211.292 616.537 212.769L517.271 308.562 502.204 322.997 519.646 353.222 539.618 347.003 566.23 339.454 566.061 339.609 578.298 353.105 616.853 342.461 620.401 324.222 620.128 324.17 672.234 309.392 672.539 309.286C674.631 308.397 676.231 306.64 676.919 304.474 677.557 302.53 677.31 300.405 676.245 298.658ZM509.073 323.968 518.625 314.826 534.76 342.792 522.206 346.705ZM612.143 338.081 580.075 346.94 571.833 337.852 614.544 325.737ZM671.731 302.82C671.544 303.412 671.127 303.903 670.574 304.185L540.12 341.184 522.667 310.931 620.371 216.666C620.686 216.341 621.133 216.18 621.583 216.229 622.08 216.281 622.529 216.547 622.814 216.958L671.6 301.469C671.843 301.878 671.891 302.373 671.731 302.82Z" stroke="#FFC000" stroke-width="1.33844" fill="#FFFFFF"/><path d="M674.651 240.352 701.861 225.043 704.536 229.797 677.326 245.107Z" stroke="#FFC000" stroke-width="1.33844" fill="#FFFFFF"/><path d="M678.736 264.917 680.21 259.661 710.276 268.091 708.802 273.347Z" stroke="#FFC000" stroke-width="1.33862" fill="#FFFFFF"/><path d="M658.332 229.213 666.762 199.146 672.018 200.62 663.588 230.686Z" stroke="#FFC000" stroke-width="1.33862" fill="#FFFFFF"/></g></svg>